<mxfile host="app.diagrams.net" modified="2020-03-30T08:56:51.880Z" agent="5.0 (Windows NT 10.0; Win64; x64) AppleWebKit/537.36 (KHTML, like Gecko) Chrome/80.0.3987.149 Safari/537.36" etag="u6bRNQVD6b5AbW0lF6O_" version="12.9.4" type="github">
  <diagram id="NUOA6mpo8N-NY2d6egCE" name="Page-1">
    <mxGraphModel dx="1102" dy="582" grid="1" gridSize="10" guides="1" tooltips="1" connect="1" arrows="1" fold="1" page="1" pageScale="1" pageWidth="827" pageHeight="1169" math="0" shadow="0">
      <root>
        <mxCell id="0" />
        <mxCell id="1" parent="0" />
        <mxCell id="D7tAY-Ja1K5RIbv1iKdG-1" value="" style="rounded=0;whiteSpace=wrap;html=1;" parent="1" vertex="1">
          <mxGeometry x="80" y="110" width="170" height="180" as="geometry" />
        </mxCell>
        <mxCell id="D7tAY-Ja1K5RIbv1iKdG-27" style="edgeStyle=orthogonalEdgeStyle;rounded=0;orthogonalLoop=1;jettySize=auto;html=1;exitX=1;exitY=0.5;exitDx=0;exitDy=0;dashed=1;endArrow=none;endFill=0;" parent="1" source="D7tAY-Ja1K5RIbv1iKdG-2" target="D7tAY-Ja1K5RIbv1iKdG-14" edge="1">
          <mxGeometry relative="1" as="geometry" />
        </mxCell>
        <mxCell id="D7tAY-Ja1K5RIbv1iKdG-2" value="br-int" style="rounded=1;whiteSpace=wrap;html=1;" parent="1" vertex="1">
          <mxGeometry x="112.5" y="210" width="105" height="40" as="geometry" />
        </mxCell>
        <mxCell id="D7tAY-Ja1K5RIbv1iKdG-29" style="edgeStyle=orthogonalEdgeStyle;rounded=0;orthogonalLoop=1;jettySize=auto;html=1;exitX=0.5;exitY=1;exitDx=0;exitDy=0;entryX=0.5;entryY=0;entryDx=0;entryDy=0;endArrow=classic;endFill=1;" parent="1" source="D7tAY-Ja1K5RIbv1iKdG-3" target="D7tAY-Ja1K5RIbv1iKdG-10" edge="1">
          <mxGeometry relative="1" as="geometry" />
        </mxCell>
        <mxCell id="D7tAY-Ja1K5RIbv1iKdG-3" value="" style="rounded=0;whiteSpace=wrap;html=1;" parent="1" vertex="1">
          <mxGeometry x="180" y="250" width="20" height="10" as="geometry" />
        </mxCell>
        <mxCell id="D7tAY-Ja1K5RIbv1iKdG-8" value="" style="edgeStyle=orthogonalEdgeStyle;rounded=0;orthogonalLoop=1;jettySize=auto;html=1;entryX=0.5;entryY=1;entryDx=0;entryDy=0;entryPerimeter=0;" parent="1" source="D7tAY-Ja1K5RIbv1iKdG-4" target="D7tAY-Ja1K5RIbv1iKdG-5" edge="1">
          <mxGeometry relative="1" as="geometry">
            <mxPoint x="165" y="120" as="targetPoint" />
          </mxGeometry>
        </mxCell>
        <mxCell id="D7tAY-Ja1K5RIbv1iKdG-4" value="" style="rounded=0;whiteSpace=wrap;html=1;" parent="1" vertex="1">
          <mxGeometry x="155" y="200" width="20" height="10" as="geometry" />
        </mxCell>
        <mxCell id="D7tAY-Ja1K5RIbv1iKdG-25" style="edgeStyle=orthogonalEdgeStyle;rounded=0;orthogonalLoop=1;jettySize=auto;html=1;exitX=0.5;exitY=0;exitDx=0;exitDy=0;entryX=0;entryY=0.5;entryDx=0;entryDy=0;dashed=1;endArrow=none;endFill=0;" parent="1" source="D7tAY-Ja1K5RIbv1iKdG-5" target="D7tAY-Ja1K5RIbv1iKdG-23" edge="1">
          <mxGeometry relative="1" as="geometry" />
        </mxCell>
        <mxCell id="D7tAY-Ja1K5RIbv1iKdG-5" value="vfw" style="whiteSpace=wrap;html=1;aspect=fixed;" parent="1" vertex="1">
          <mxGeometry x="145" y="130" width="40" height="40" as="geometry" />
        </mxCell>
        <mxCell id="D7tAY-Ja1K5RIbv1iKdG-45" style="edgeStyle=orthogonalEdgeStyle;rounded=0;orthogonalLoop=1;jettySize=auto;html=1;exitX=0.5;exitY=1;exitDx=0;exitDy=0;entryX=0.5;entryY=1;entryDx=0;entryDy=0;endArrow=none;endFill=0;" parent="1" source="D7tAY-Ja1K5RIbv1iKdG-9" target="D7tAY-Ja1K5RIbv1iKdG-19" edge="1">
          <mxGeometry relative="1" as="geometry" />
        </mxCell>
        <mxCell id="D7tAY-Ja1K5RIbv1iKdG-9" value="" style="rounded=0;whiteSpace=wrap;html=1;" parent="1" vertex="1">
          <mxGeometry x="125" y="290" width="20" height="10" as="geometry" />
        </mxCell>
        <mxCell id="D7tAY-Ja1K5RIbv1iKdG-10" value="" style="rounded=0;whiteSpace=wrap;html=1;" parent="1" vertex="1">
          <mxGeometry x="179" y="290" width="20" height="10" as="geometry" />
        </mxCell>
        <mxCell id="D7tAY-Ja1K5RIbv1iKdG-11" value="eth0" style="text;html=1;strokeColor=none;fillColor=none;align=center;verticalAlign=middle;whiteSpace=wrap;rounded=0;" parent="1" vertex="1">
          <mxGeometry x="100" y="300" width="40" height="20" as="geometry" />
        </mxCell>
        <mxCell id="D7tAY-Ja1K5RIbv1iKdG-12" value="eth1" style="text;html=1;strokeColor=none;fillColor=none;align=center;verticalAlign=middle;whiteSpace=wrap;rounded=0;" parent="1" vertex="1">
          <mxGeometry x="159" y="300" width="40" height="20" as="geometry" />
        </mxCell>
        <mxCell id="D7tAY-Ja1K5RIbv1iKdG-13" value="" style="rounded=0;whiteSpace=wrap;html=1;" parent="1" vertex="1">
          <mxGeometry x="360" y="110" width="170" height="180" as="geometry" />
        </mxCell>
        <mxCell id="D7tAY-Ja1K5RIbv1iKdG-14" value="br-int" style="rounded=1;whiteSpace=wrap;html=1;" parent="1" vertex="1">
          <mxGeometry x="392.5" y="210" width="105" height="40" as="geometry" />
        </mxCell>
        <mxCell id="D7tAY-Ja1K5RIbv1iKdG-30" style="edgeStyle=orthogonalEdgeStyle;rounded=0;orthogonalLoop=1;jettySize=auto;html=1;exitX=0.5;exitY=1;exitDx=0;exitDy=0;entryX=0.5;entryY=0;entryDx=0;entryDy=0;endArrow=classic;endFill=1;" parent="1" source="D7tAY-Ja1K5RIbv1iKdG-15" target="D7tAY-Ja1K5RIbv1iKdG-20" edge="1">
          <mxGeometry relative="1" as="geometry" />
        </mxCell>
        <mxCell id="D7tAY-Ja1K5RIbv1iKdG-15" value="" style="rounded=0;whiteSpace=wrap;html=1;" parent="1" vertex="1">
          <mxGeometry x="460" y="250" width="20" height="10" as="geometry" />
        </mxCell>
        <mxCell id="D7tAY-Ja1K5RIbv1iKdG-16" value="" style="edgeStyle=orthogonalEdgeStyle;rounded=0;orthogonalLoop=1;jettySize=auto;html=1;entryX=0.5;entryY=1;entryDx=0;entryDy=0;entryPerimeter=0;" parent="1" source="D7tAY-Ja1K5RIbv1iKdG-17" target="D7tAY-Ja1K5RIbv1iKdG-18" edge="1">
          <mxGeometry relative="1" as="geometry">
            <mxPoint x="445" y="120" as="targetPoint" />
          </mxGeometry>
        </mxCell>
        <mxCell id="D7tAY-Ja1K5RIbv1iKdG-17" value="" style="rounded=0;whiteSpace=wrap;html=1;" parent="1" vertex="1">
          <mxGeometry x="435" y="200" width="20" height="10" as="geometry" />
        </mxCell>
        <mxCell id="D7tAY-Ja1K5RIbv1iKdG-26" style="edgeStyle=orthogonalEdgeStyle;rounded=0;orthogonalLoop=1;jettySize=auto;html=1;exitX=0.5;exitY=0;exitDx=0;exitDy=0;entryX=1;entryY=0.5;entryDx=0;entryDy=0;dashed=1;endArrow=none;endFill=0;" parent="1" source="D7tAY-Ja1K5RIbv1iKdG-18" target="D7tAY-Ja1K5RIbv1iKdG-23" edge="1">
          <mxGeometry relative="1" as="geometry" />
        </mxCell>
        <mxCell id="D7tAY-Ja1K5RIbv1iKdG-18" value="vfw" style="whiteSpace=wrap;html=1;aspect=fixed;" parent="1" vertex="1">
          <mxGeometry x="425" y="130" width="40" height="40" as="geometry" />
        </mxCell>
        <mxCell id="D7tAY-Ja1K5RIbv1iKdG-19" value="" style="rounded=0;whiteSpace=wrap;html=1;" parent="1" vertex="1">
          <mxGeometry x="405" y="290" width="20" height="10" as="geometry" />
        </mxCell>
        <mxCell id="D7tAY-Ja1K5RIbv1iKdG-20" value="" style="rounded=0;whiteSpace=wrap;html=1;" parent="1" vertex="1">
          <mxGeometry x="459" y="290" width="20" height="10" as="geometry" />
        </mxCell>
        <mxCell id="D7tAY-Ja1K5RIbv1iKdG-22" value="eth1" style="text;html=1;strokeColor=none;fillColor=none;align=center;verticalAlign=middle;whiteSpace=wrap;rounded=0;" parent="1" vertex="1">
          <mxGeometry x="475" y="300" width="40" height="20" as="geometry" />
        </mxCell>
        <mxCell id="D7tAY-Ja1K5RIbv1iKdG-23" value="logical&lt;br&gt;switch" style="rounded=0;whiteSpace=wrap;html=1;" parent="1" vertex="1">
          <mxGeometry x="260" y="20" width="90" height="40" as="geometry" />
        </mxCell>
        <mxCell id="D7tAY-Ja1K5RIbv1iKdG-28" value="VxLAN" style="text;html=1;strokeColor=none;fillColor=none;align=center;verticalAlign=middle;whiteSpace=wrap;rounded=0;" parent="1" vertex="1">
          <mxGeometry x="285" y="200" width="40" height="20" as="geometry" />
        </mxCell>
        <mxCell id="D7tAY-Ja1K5RIbv1iKdG-31" value="" style="ellipse;shape=cloud;whiteSpace=wrap;html=1;" parent="1" vertex="1">
          <mxGeometry x="273" y="330" width="90" height="50" as="geometry" />
        </mxCell>
        <mxCell id="D7tAY-Ja1K5RIbv1iKdG-32" value="master" style="text;html=1;strokeColor=none;fillColor=none;align=center;verticalAlign=middle;whiteSpace=wrap;rounded=0;" parent="1" vertex="1">
          <mxGeometry x="86" y="110" width="40" height="20" as="geometry" />
        </mxCell>
        <mxCell id="D7tAY-Ja1K5RIbv1iKdG-33" value="host" style="text;html=1;strokeColor=none;fillColor=none;align=center;verticalAlign=middle;whiteSpace=wrap;rounded=0;" parent="1" vertex="1">
          <mxGeometry x="365" y="110" width="40" height="20" as="geometry" />
        </mxCell>
        <mxCell id="D7tAY-Ja1K5RIbv1iKdG-36" value="" style="curved=1;endArrow=classic;html=1;exitX=0.5;exitY=1;exitDx=0;exitDy=0;entryX=0.13;entryY=0.77;entryDx=0;entryDy=0;entryPerimeter=0;" parent="1" source="D7tAY-Ja1K5RIbv1iKdG-10" target="D7tAY-Ja1K5RIbv1iKdG-31" edge="1">
          <mxGeometry width="50" height="50" relative="1" as="geometry">
            <mxPoint x="160" y="400" as="sourcePoint" />
            <mxPoint x="260" y="358" as="targetPoint" />
            <Array as="points">
              <mxPoint x="240" y="360" />
            </Array>
          </mxGeometry>
        </mxCell>
        <mxCell id="D7tAY-Ja1K5RIbv1iKdG-37" value="" style="curved=1;endArrow=classic;html=1;exitX=0.5;exitY=1;exitDx=0;exitDy=0;entryX=0.96;entryY=0.7;entryDx=0;entryDy=0;entryPerimeter=0;" parent="1" source="D7tAY-Ja1K5RIbv1iKdG-20" target="D7tAY-Ja1K5RIbv1iKdG-31" edge="1">
          <mxGeometry width="50" height="50" relative="1" as="geometry">
            <mxPoint x="390" y="380" as="sourcePoint" />
            <mxPoint x="440" y="330" as="targetPoint" />
            <Array as="points">
              <mxPoint x="440" y="360" />
            </Array>
          </mxGeometry>
        </mxCell>
        <mxCell id="D7tAY-Ja1K5RIbv1iKdG-44" value="eth0" style="text;html=1;strokeColor=none;fillColor=none;align=center;verticalAlign=middle;whiteSpace=wrap;rounded=0;" parent="1" vertex="1">
          <mxGeometry x="374" y="300" width="40" height="20" as="geometry" />
        </mxCell>
      </root>
    </mxGraphModel>
  </diagram>
</mxfile>
